<svg width="1506" height="2008" viewBox="0 0 1506 2008" fill="none" xmlns="http://www.w3.org/2000/svg">
<g clip-path="url(#clip0_12_158)" filter="url(#filter0_f_12_158)">
<rect width="1494" height="1996" transform="translate(6 6)" fill="#FFFBF2"/>
<path d="M5.5 2004.5V918C101 1027 90 1060.5 165 1199.5C240 1338.5 243 1549.5 287 1590C331 1630.5 382 1641 582.5 1743C742.9 1824.6 855.333 1951.33 891.5 2004.5H5.5Z" fill="#DCB7DA"/>
<path d="M151 171C165.4 93.8 245.667 31.8333 284 10.5H574C574 10.5 638.681 35.5 687 119.5C735.319 203.5 670.5 408 703.5 466.5C736.5 525 714.5 493.5 796.5 574C878.5 654.5 944.5 803.5 951.5 969.5C958.5 1135.5 888 1206.5 858.5 1223C829 1239.5 722 1247 660 1206.5C598 1166 510.5 1037 512 803.5C513.089 634 458.866 581 426.5 541C373.5 475.5 284 462.5 213 402.5C142 342.5 133 267.5 151 171Z" fill="#B4E4EE"/>
<path d="M1502.5 1315V673.5C1487.83 700.667 1455.1 795.7 1441.5 958.5C1424.5 1162 1502.5 1298 1502.5 1315Z" fill="#ACE5F1"/>
<path d="M680 674C693 570 641.5 440.5 618 380.5M680 674C670.077 676.427 652.288 678.078 629 676.059M680 674C690.333 641.833 708.1 571.7 696.5 548.5C683.816 523.132 669.601 413.59 666.24 333M680 674C693.76 664.981 713 692.5 723.5 561C734 429.5 713 466.5 713 333C713 226.2 822.333 135.5 877 103.5M680 674C703.667 644.166 755.8 569.999 775 512C799 439.501 793 315 811.5 238.5C826.3 177.3 861.333 123 877 103.5M680 674C707.333 641.833 782.1 546.9 862.5 424.5C942.9 302.1 905.667 159.5 877 103.5M680 674C706.833 646.499 770.7 590.098 811.5 584.499C862.5 577.5 946.5 573.5 990 561C1024.8 551 1057.83 541.167 1070 537.5M680 674C699.5 666.557 743.9 647.284 765.5 629.739C792.5 607.808 862.5 617.5 940.5 594C1002.9 575.2 1052.83 548.5 1070 537.5M680 674C711.667 675.167 790.3 673.9 851.5 659.5C928 641.5 968 624.676 979 617.5C987.8 611.759 1043.33 561.775 1070 537.5M680 674C723.833 688 833 707.6 919 674C1005 640.4 1055.5 569 1070 537.5M680 674C748.167 693.777 898.7 725.164 955.5 692.5C1012.3 659.836 1055.5 575.557 1070 537.5M680 674C691 718.333 694 832.2 618 933C542 1033.8 453.667 1083.33 419 1095.5M680 674C595.544 728.828 572.786 753.04 534 770.963M680 674C676.333 717.333 653.3 823.3 590.5 900.5C512 997 501 1072 419 1095.5M680 674C675.833 692.975 659.8 738.933 629 770.963C590.5 811 556 865 534 911C512 957 505 1002.5 477.5 1037C455.5 1064.6 429.333 1087.5 419 1095.5M680 674C672 685.167 646.2 716.2 607 751C558 794.5 546.5 802 512 867.5C477.5 933 475.5 979 461 1008C446.5 1037 442.5 1095.5 419 1095.5M680 674C675.797 671.76 670.918 669.026 665.5 665.841M357 453.5C337 389.5 329.5 319 311.5 264C293.5 209 287.5 183.5 258.5 169M357 453.5C370.282 496.001 390.84 543.133 432 584.499M357 453.5C346.667 437 312.5 402.2 258.5 395C191 386 178.5 382.5 80 424.5C1.20002 458.1 9.50002 456.5 23.5 451.5M258.5 169C229.5 154.5 266 174.5 311.5 180C357 185.5 410 183.5 461 203.5C512 223.5 594.5 320.5 618 380.5M258.5 169C275.761 174.59 306.574 191.331 337 222.666M258.5 169C308.5 185.333 424.9 232.6 490.5 291C572.5 364 629.265 504.5 642.633 561C653.327 606.2 662.333 649.727 665.5 665.841M618 380.5C590 337.833 534 242.7 534 203.5C534 154.5 563 39.5 590.5 23M32.5 716C22.1667 715.5 13.5 717 61.5 727C76.5126 730.128 89.6158 734.445 102 739.528M32.5 716C45.3333 714.333 77.2 707.3 102 692.5C133 674 166 643 226 617.5C231.879 615.001 237.355 612.608 242.5 610.324M32.5 716C55.6667 716 107.8 716 131 716C160 716 226 676.059 249.5 659.5C273 642.941 331.5 605 395.5 606.5C446.7 607.7 480.167 622.493 490.5 629.739M432 584.499C424.667 582.166 399.4 577.5 357 577.5C309.193 577.5 289.864 589.298 242.5 610.324M432 584.499C448.088 600.667 467.322 615.954 490.5 629.739M432 584.499C422.333 576.833 395.7 558.9 366.5 548.5M629 676.059C611.833 673.706 564.4 673.7 512 692.5C446.5 716 433.5 733 384.5 751C335.5 769 310.746 778.5 242.5 776.5C187.903 774.9 126.085 751.186 102 739.528M629 676.059C603.065 673.812 570.309 667.013 534 651.67M102 739.528C139.111 754.762 169.766 776.88 226 794.5C301 818 357 820 461 794.5C494.166 786.368 515.84 779.355 534 770.963M102 739.528C119.5 743.352 163.3 751 198.5 751C242.5 751 298.5 690.5 357 674C415.5 657.5 488.5 636.062 534 651.67M534 651.67C526.798 648.627 519.456 645.247 512 641.5C504.479 637.72 497.319 633.795 490.5 629.739M366.5 548.5C330 535.5 275 541.5 213 537.5C151 533.5 98.5001 499 80 488C65.2 479.2 36.1667 460 23.5 451.5M366.5 548.5C359.167 538.667 340.1 515 322.5 499C300.5 479 242.5 453.5 213 451.5C183.5 449.5 140 462.5 102 466.5C71.6 469.7 37 457.833 23.5 451.5M23.5 451.5C51.5 480.167 112.2 545.5 131 577.5C149.8 609.5 213.167 612.716 242.5 610.324M590.5 23C582 50.5 573.4 115.3 607 154.5C649 203.5 665.5 220.5 665.5 300.5C665.5 310.519 665.759 321.463 666.24 333M590.5 23C586.333 44.8333 588.2 95.1 629 121.5C680 154.5 680 169 680 216.5C680 235.98 677.589 260.058 674.622 282M590.5 23C590.667 36.5 605.9 71.5 665.5 103.5C725.1 135.5 722 183.5 713 203.5M666.24 333C668.475 321.79 671.8 302.861 674.622 282M713 203.5C698.414 218.667 670.319 255.6 674.622 282M713 203.5C751.271 140.7 838.28 110.667 877 103.5M419 1095.5C423.333 1083.33 432 1051.7 432 1022.5C432 986 459.5 827.5 490.5 811L534 770.963M337 222.666C358.278 244.58 379.368 273.632 395.5 311C444.5 424.5 450 457.5 512 537.5C548.236 584.256 602.334 625.497 642.633 651.67M337 222.666C378.333 245.444 475.6 311.8 534 395C592.4 478.2 630.755 600.78 642.633 651.67M642.633 651.67C650.933 657.061 658.647 661.812 665.5 665.841" stroke="#757575" stroke-width="10"/>
<path d="M291.5 2002C305.948 1969.13 327.901 1922.36 355.207 1868.5M1152.5 1008C1118.04 1030.71 1072 1062.45 1020.5 1099.95M1152.5 1008C1163.83 1013.67 1195.4 1025.3 1231 1026.5C1275.5 1028 1356.5 1019 1372 1005.5C1384.4 994.7 1391.5 987.667 1393.5 985.5C1373.33 988.167 1328.8 991.9 1312 985.5C1295.2 979.1 1198.67 997.833 1152.5 1008ZM1152.5 1008C1152.5 1005.5 1153 984 1142 957C1131 930 1126.5 882.5 1142 860C1154.4 842 1183.83 797.5 1197 777.5C1202.5 809.5 1210.2 881.6 1197 914C1183.8 946.4 1161.83 990.167 1152.5 1008ZM1152.5 1008C1182.79 994.374 1226.58 973.692 1270 951.406M1415 860C1396.9 882.382 1333.86 918.629 1270 951.406M355.207 1868.5C361.805 1872.17 384.9 1874.4 424.5 1854C474 1828.5 528.5 1753.5 539.5 1719C526.833 1724.5 491.6 1743.9 452 1777.5C412.4 1811.1 370.971 1852.17 355.207 1868.5ZM355.207 1868.5C360.003 1859.04 364.964 1849.36 370.079 1839.5M370.079 1839.5C359.219 1838.33 334.9 1824.3 324.5 1777.5C311.5 1719 310 1675.5 324.5 1642.5C336.1 1616.1 336.667 1596.17 335.5 1589.5C347.026 1604.83 346.858 1609.5 370.079 1679C393.3 1748.5 399.604 1722.5 393.3 1795.5M370.079 1839.5C377.507 1825.18 385.26 1810.47 393.3 1795.5M393.3 1795.5C411.172 1762.21 430.468 1727.59 450.796 1692.88M452 1679C448.333 1658.83 437.7 1612.7 424.5 1589.5C408 1560.5 424.5 1515 424.5 1496.5C424.5 1478 424.5 1436.5 424.5 1436.5C436.667 1451.83 461.6 1492.7 464 1533.5C467 1584.5 469.021 1662.14 464 1670.57M464 1670.57C459.963 1677.32 455.962 1684.08 452 1690.83M464 1670.57C490.202 1626.77 517.914 1583.24 546.348 1542.5M452 1690.83C471 1672.55 519.3 1633.4 560.5 1623C612 1610 676 1599 703 1601.5C724.6 1603.5 749.667 1606.33 759.5 1607.5C751.5 1617.5 729 1639.7 703 1648.5C670.5 1659.5 631.5 1679 577 1679C533.4 1679 474.697 1688.26 450.796 1692.88M452 1690.83C451.598 1691.51 451.197 1692.2 450.796 1692.88M546.348 1542.5C557.232 1542.33 591.4 1539.6 641 1530C703 1518 791 1482 814 1463C832.4 1447.8 850.667 1436.67 857.5 1433C836.167 1429.17 781.5 1426.1 733.5 1444.5C685.5 1462.9 588.732 1517.5 546.348 1542.5ZM546.348 1542.5C559.625 1523.47 573.06 1505.06 586.572 1487.5M586.572 1487.5C590.875 1481.91 595.185 1476.41 599.5 1471C603.852 1465.55 608.375 1460.04 613.056 1454.5M586.572 1487.5C586 1481.5 558.652 1455.5 552.5 1396C546.348 1336.5 571 1285.5 572.5 1281C573.7 1277.4 576.667 1251.5 578 1239C591.5 1257.33 618.7 1303.4 619.5 1341C620.5 1388 613.056 1454.5 613.056 1454.5M613.056 1454.5C639.516 1423.16 671.051 1390.46 705.624 1357.5M705.624 1357.5C721.582 1363.33 765.6 1374.3 814 1371.5C874.5 1368 951.5 1322.5 964.5 1312C974.9 1303.6 997.5 1284.83 1007.5 1276.5C983 1281.67 925.8 1291.6 893 1290C852 1288 747.376 1327.8 726.5 1337.9M705.624 1357.5C712.469 1350.97 719.433 1344.44 726.5 1337.9M726.5 1337.9C726.5 1331.5 719.247 1297.79 705.624 1261C692 1224.21 689.5 1168 699.5 1145C707.5 1126.6 712.5 1107.33 714 1100C722.667 1121 740.5 1169.5 742.5 1195.5C745 1228 754.64 1292.5 740.57 1325M726.5 1337.9C731.147 1333.6 735.838 1329.3 740.57 1325M858.5 1224.21C864.5 1226 965.5 1240.91 1007.5 1224.21C1041.1 1210.84 1114.5 1177.17 1147 1162C1110.33 1164.33 1032.6 1168.3 1015 1165.5C997.4 1162.7 912.667 1195.95 872.5 1212.92M858.5 1224.21C863.164 1220.42 867.832 1216.66 872.5 1212.92M858.5 1224.21C818.161 1256.9 778.103 1290.9 740.57 1325M872.5 1212.92C873.167 1203.11 872.9 1175.8 866.5 1145C858.5 1106.5 844.5 1098.5 853.5 1054C860.7 1018.4 876.5 988.167 883.5 977.5C893.5 998.167 912.8 1048.4 910 1084C907.2 1119.6 891.167 1178.92 883.5 1204.13M872.5 1212.92C876.167 1209.98 879.834 1207.05 883.5 1204.13M883.5 1204.13C920.038 1175.06 956.426 1147.26 991 1121.63M991 1121.63C1002.67 1111.42 1042.6 1093.1 1109 1101.5C1192 1112 1218.5 1137 1274 1125.5C1329.5 1114 1353.5 1099.5 1356 1095.5C1358.5 1091.5 1262.5 1080.5 1248 1071.5C1233.5 1062.5 1149 1038.5 1112.5 1057C1083.3 1071.8 1039 1091.8 1020.5 1099.95M991 1121.63C998.167 1114.59 1011.2 1090.1 1006 1048.5C999.5 996.5 994 970.5 998 950.5C1001.2 934.5 1010.67 895.833 1015 878.5C1026.67 892 1049.2 926.6 1046 957C1042 995 1023 1098.05 1009.48 1108M991 1121.63C997.224 1117.01 1003.39 1112.47 1009.48 1108M1020.5 1099.95C1016.85 1102.61 1013.18 1105.29 1009.48 1108M1270 951.406C1288.33 931.27 1326.9 884.8 1334.5 860C1342.1 835.2 1346.33 824.333 1347.5 822" stroke="#757575" stroke-width="11"/>
<path d="M1479.5 697.5L1488.5 701L1491 738.5L1469 789.5C1468.17 791.167 1463.7 792.9 1452.5 786.5C1438.5 778.5 1422.5 787.5 1423.5 780.5C1424.3 774.9 1439.83 765.833 1447.5 762C1459.1 744.4 1475.33 732.333 1482 728.5L1485.5 706.5L1471.5 703.5C1475.33 704.5 1474.1 714.2 1438.5 745C1394 783.5 1340 771.5 1345.5 765.5C1351 759.5 1349.5 760 1369.5 728.5C1385.5 703.3 1420.5 695.333 1436 694.5L1400.5 687C1400 691.667 1388.3 702.1 1345.5 706.5C1302.7 710.9 1265.33 692.667 1252 683C1249 683.167 1251.7 678.1 1286.5 656.5C1330 629.5 1394 672.5 1411.5 680.5C1425.5 686.9 1441.33 687.5 1447.5 687C1437.33 684.333 1415.3 674.5 1408.5 656.5C1401.7 638.5 1383.67 600.333 1375.5 583.5C1381 584.667 1400.8 592 1436 612C1471.2 632 1479.67 677.333 1479.5 697.5Z" fill="#757575"/>
<path d="M1370 1229.5C1371.2 1171.9 1422.83 1140.83 1448.5 1132.5V1113C1443.33 1116.83 1428.2 1126.1 1409 1132.5C1385 1140.5 1341 1186 1341 1238C1341 1290 1370 1324 1400 1347.5C1424 1366.3 1476.67 1355.33 1500 1347.5V1331.5C1478.5 1336.33 1430.2 1343.1 1409 1331.5C1382.5 1317 1368.5 1301.5 1370 1229.5Z" fill="#757575"/>
<path d="M382 1875C375.2 1884.6 333.5 2007 333.5 2007H311C311 2007 355.333 1881 376.5 1836C380.333 1822.83 382.3 1789.9 359.5 1763.5C331 1730.5 301.5 1678.5 294 1636C288 1602 304.833 1574.17 314 1564.5C316.667 1568.67 321.9 1580.5 321.5 1594.5C321 1612 326 1614 367.5 1678.5C409 1743 395 1805.5 402.5 1785.5C410 1765.5 436 1722.5 446.5 1709C457 1695.5 446.5 1665 436 1636C425.5 1607 427.5 1551 440.5 1514.5C450.9 1485.3 448.833 1451.67 446.5 1438.5C446.833 1435 449.1 1429.1 455.5 1433.5C463.5 1439 472 1432.5 495 1494.5C518 1556.5 491.5 1647 484 1654C476.5 1661 472 1693 502 1625.5C532 1558 582 1525 588 1514.5C592.8 1506.1 586 1493.33 582 1488C553.5 1420 586 1345.5 606 1319.5C622 1298.7 635.333 1277.5 640 1269.5C643.833 1267.5 653.6 1267.1 662 1281.5C672.5 1299.5 643.5 1328.5 643.5 1394.5C643.5 1460.5 626 1471 634 1465.5C642 1460 665.5 1428 697 1398.5C728.5 1369 717.5 1372.5 723 1341.5C681.8 1243.9 722.833 1146.5 748.5 1110C757.167 1117.17 776.1 1144.8 782.5 1198C788.16 1245.04 757.785 1312.86 745.37 1337.54C765.984 1306.23 839.602 1257.4 853.5 1232C868 1205.5 865 1183.5 853.5 1160.5C842 1137.5 853.5 1089.5 870.5 1064C884.1 1043.6 916.5 1011.17 931 997.5C930 1013.67 927.6 1056.5 926 1098.5C924 1151 845.5 1259.5 881 1218C916.5 1176.5 978 1155.84 997 1103.5C1016 1051.16 994 1019 1003 976.5C1010.2 942.5 1033.67 911.333 1044.5 900C1050.67 893.333 1064.1 895 1068.5 955C1074 1030 997 1110 1015 1098.5C1029.4 1089.3 1101.67 1038.33 1136 1014L1160.5 961.5C1156.33 957.333 1146.5 941.7 1140.5 912.5C1134.5 883.3 1186.33 812 1213 780C1220.33 793.5 1234.7 828.8 1233.5 862C1232 903.5 1187 961.5 1179 961.5C1171 961.5 1150 1008.5 1160.5 997.5C1171 986.5 1222.5 960 1262.5 942C1294.5 927.6 1334.17 876 1350 852C1351.67 849.333 1354 847.6 1350 862C1346 876.4 1328.67 906.333 1320.5 919.5C1323.83 919.5 1338.2 914.5 1369 894.5C1399.8 874.5 1421.5 841.167 1428.5 827C1431.83 825.167 1438.1 824.5 1436.5 836.5C1434.5 851.5 1391 902 1369 919.5C1347 937 1241.5 971.5 1228.5 976.5C1218.1 980.5 1196.5 999.5 1187 1008.5C1178.5 1014.33 1174.9 1020.3 1228.5 997.5C1282.1 974.7 1331.83 978 1350 982.5C1361.67 981.167 1375.6 984.5 1338 1008.5C1300.4 1032.5 1199.33 1035.83 1153.5 1034.5C1081.17 1076.67 961.8 1147.6 1063 1094C1164.2 1040.4 1260.83 1042.67 1296.5 1050.5C1293.83 1057 1275.3 1076.7 1222.5 1103.5C1156.5 1137 1110.5 1114 1054.5 1119.5C1009.7 1123.9 939.5 1183.67 910 1213C903.667 1220.17 907.3 1224.3 972.5 1183.5C1037.7 1142.7 1100.33 1143.83 1123.5 1149.5C1119.17 1157.5 1107.6 1173.7 1096 1174.5C1081.5 1175.5 1027.5 1216.5 1015 1228.5C1002.5 1240.5 931 1228 918.5 1228.5C906 1229 875 1250.5 853.5 1263.5C836.3 1273.9 793.667 1322.5 774.5 1345.5C795.333 1338.17 846.9 1315.1 886.5 1281.5C926.1 1247.9 960.333 1241.17 972.5 1242C974.833 1239.5 979.2 1237.7 978 1250.5C976.5 1266.5 946 1297.5 918.5 1333C896.5 1361.4 818.667 1371.17 782.5 1372.5C777.333 1373 758.2 1379.8 723 1403C687.8 1426.2 636.667 1494 615.5 1525C628.667 1517 657.1 1499.7 665.5 1494.5C676 1488 715 1463 751 1454C779.8 1446.8 831.333 1445.67 853.5 1446C838.5 1464.17 798.9 1505.4 760.5 1525C722.1 1544.6 660.167 1536.17 634 1529.5C626 1534.67 606.6 1547.2 593 1556C579.4 1564.8 537 1616.67 517.5 1641.5C515.5 1644.17 523.6 1639.9 572 1601.5C620.4 1563.1 680.833 1555.17 705 1556C707.833 1552.33 711.8 1548.9 705 1564.5C696.5 1584 663 1605.5 645.5 1625.5C631.5 1641.5 520 1685.17 466 1705L427.5 1790.5C431 1789 442.8 1784.3 462 1777.5C481.2 1770.7 529 1729 550.5 1709C559.167 1696.17 578.1 1670.7 584.5 1671.5C590.9 1672.3 592.833 1676.5 593 1678.5C581.5 1712.83 554.6 1784.5 539 1796.5C519.5 1811.5 508 1815 472 1836C443.2 1852.8 408.667 1854.67 395 1853.5C393.5 1856.67 388.8 1865.4 382 1875Z" fill="#E49FBC"/>
<path d="M722.5 2007.5C715.667 1946.67 701.3 1820.3 698.5 1801.5C695.7 1782.7 697.333 1779 698.5 1779.5C701.833 1798.83 722.8 1850.7 780 1903.5C851.5 1969.5 841 1999 848.5 2007.5M832.5 2007.5C823 1986.33 819.6 1920.7 882 1827.5C944.4 1734.3 956.333 1679 954.5 1663C984.167 1711.17 1029.1 1847.5 971.5 2007.5M921.5 2007.5C968.833 1984.83 1079.7 1929 1144.5 1887C1209.3 1845 1235.5 1800.83 1240.5 1784C1252.33 1811.17 1254.3 1893.9 1167.5 2007.5" stroke="#757575" stroke-width="10"/>
<path d="M124 910C96.4 922 30.8333 961.333 1.5 979.5V1094.5C4.5 1097.67 26.9 1098.8 92.5 1078C174.5 1052 196.5 989.5 194.5 958C192.9 932.8 180.167 903.5 174 892C168.833 893 151.6 898 124 910Z" fill="#E49FBC"/>
<path d="M79.5 1240.5C69.1 1249.3 23.1667 1259.17 1.5 1263V1377C3.66667 1372.33 14.5 1355.4 40.5 1325C73 1287 92.5 1229.5 79.5 1240.5Z" fill="#E49FBC"/>
<path d="M3 1342C3 1337 69 1218.5 77.5 1196C84.3 1178 76 1180.5 71 1184C65 1193 43 1214.5 3 1228.5M3 1101C41.6667 1097.83 127.6 1081.7 162 1042.5C196.4 1003.3 208.667 973.5 210.5 963.5C199 968.833 164.1 980.6 116.5 985C68.9 989.4 21 1011.17 3 1021.5" stroke="#757575" stroke-width="10"/>
<path d="M1503.5 74.5C1472.83 82.1667 1407.6 113.2 1392 176C1372.5 254.5 1403.5 251 1366 303C1351 312.667 1318.4 334.3 1308 343.5C1306.17 336.667 1303.6 319 1308 303C1313.5 283 1311 233 1351.5 187C1383.9 150.2 1388.33 151.333 1386.5 156.5L1380.5 175.5C1368.02 182.333 1338.96 207.9 1324.5 253.5C1310.04 299.1 1310.14 323.167 1312 329.5L1308 343.5L1312.5 330C1312.83 329.333 1319.3 323.8 1342.5 307C1365.7 290.2 1372.17 274.333 1372.5 268.5C1376.63 255.333 1383.9 223.3 1380 200.5L1380.5 176.5L1388.5 154L1395.5 146C1403.14 136.451 1408.95 122.849 1416.3 111L1367 127.5C1366.35 127.716 1365.68 127.938 1365 128.165C1343.67 136.443 1295.7 155 1274.5 163C1253.3 171 1241.67 190 1238.5 198.5C1240.67 198.5 1244.3 204.8 1241.5 230C1238.04 261.172 1218.9 282.551 1202.03 301.405L1201.5 302C1184.5 321 1150.5 344.5 1143.5 349C1136.5 353.5 1122.5 358 1121 361.5C1119.5 365 1121 368.5 1118.5 370C1116.5 371.2 1113.67 370.5 1112.5 370C1112 369.5 1111.5 367 1113.5 361C1115.5 355 1122.67 350.167 1126 348.5C1150 335.667 1201.4 302 1215 270C1228.6 238 1228 210.667 1226 201H1220C1204 200.2 1179.67 225.667 1169.5 238.5C1156.67 254.333 1131.8 289.6 1135 304C1123 318.4 1120.67 341.333 1121 351L1115 355C1116 315 1121 318.5 1126 301C1131 283.5 1151.5 251.5 1159 237C1166.5 222.5 1170.5 236 1182 211C1191.2 191 1221.83 186.333 1236 186.5L1257 158.834C1255.37 159.111 1253.87 159.335 1252.5 159.5C1223.5 163 1229 172 1175.5 171.5C1132.7 171.1 1120.67 170.333 1120 170C1167.33 164.667 1268.1 151.1 1292.5 139.5C1316.9 127.9 1345.67 121.333 1357 119.5C1357 121 1361.9 122.4 1381.5 116C1401.1 109.6 1422.67 98.3333 1431 93.5H1390C1385.33 94.3333 1365 98.5 1321 108.5C1266 121 1274.5 121.5 1246 117C1223.2 113.4 1178.83 94.1667 1159.5 85C1154.33 81 1139.9 74.2 1123.5 79C1107.1 83.8 1108 82.3333 1110.5 81L1120 75.5C1125.65 73.1667 1139.21 69.2 1148.23 72C1159.5 75.5 1186.5 94 1237 108.5C1277.4 120.1 1336.5 98 1361 85.5C1335 66.7 1291.17 55 1272.5 51.5C1258.5 48.5 1227.9 43.2 1217.5 46C1204.5 49.5 1202 47 1173.5 54.5C1150.7 60.5 1134 68.6667 1128.5 72L1119 75C1164 29 1221 37.5 1239.5 38.5C1258 39.5 1326 56 1348 68.5C1370 81 1406.5 88 1419.5 88C1428.84 88 1442.38 84.6815 1449.75 82.5163C1450.47 82.287 1451.21 82.0615 1452 81.8323C1456.54 80.5087 1462.44 79.058 1472 76C1492 69.6 1499 63 1500 60.5L1503.5 74.5Z" fill="#E49FBC"/>
<path d="M1501 51.5C1492.83 51.1667 1475.3 49.9 1470.5 47.5C1465.7 45.1 1456.17 51.1667 1452 54.5C1438.83 56.5 1408.3 59.6 1391.5 56C1370.5 51.5 1332.5 37 1319 28C1305.5 19 1290 11.5 1287.5 7.50001C1285.5 4.30001 1295 6.16668 1300 7.50001C1311.17 16.3333 1340.2 35.6 1367 42C1400.5 50 1394 50.5 1413 52.5C1432 54.5 1447 50.5 1459.5 38.5C1461.29 36.7811 1462.96 35.635 1464.5 34.9423C1460.17 29.4615 1450.3 17.6 1445.5 14C1440.7 10.4 1440.83 8.16667 1441.5 7.5H1446.5C1450.5 13 1459.7 24.6 1464.5 27C1469.3 29.4 1470.5 32.9704 1470.5 34.4557C1474.12 35.656 1476.48 39.5322 1477.5 42.5L1500.5 43L1501 51.5Z" fill="#E49FBC"/>
<path d="M1495.5 123C1498.3 121 1500.67 121.5 1501.5 122L1500 223C1496 222.2 1495.33 216 1495.5 213C1495.5 208.167 1494.5 197.5 1490.5 193.5C1485.5 188.5 1486 167.5 1489 153C1492 138.5 1492 125.5 1495.5 123Z" fill="#E49FBC"/>
<path d="M1302.31 1214.32C1302.68 1212.35 1303.84 1211.08 1305.35 1210.11C1305.51 1210.19 1305.68 1210.26 1305.89 1210.27C1306.55 1210.31 1307.22 1210.27 1307.88 1210.27C1309.55 1210.27 1310.57 1210.58 1310.53 1212.33C1310.49 1214.22 1310.36 1217.36 1308.87 1218.64C1307.36 1219.95 1305.41 1219.62 1303.97 1218.31C1302.51 1216.97 1301.93 1216.39 1302.31 1214.32Z" fill="#757575"/>
<path d="M1288.05 1244.11C1289.56 1244.05 1290.88 1244.41 1292.24 1244.86C1293.04 1243.75 1294.26 1243.44 1295.94 1243.44C1297.99 1243.44 1297.36 1244.86 1297.67 1246.36C1297.97 1247.85 1298.35 1249.01 1298.26 1250.6C1298.16 1252.35 1296.05 1252.86 1294.68 1252.7C1291.94 1252.36 1290.04 1251.33 1288.79 1248.9C1288.53 1248.41 1286.54 1244.16 1288.05 1244.11Z" fill="#757575"/>
<path d="M1273.62 1276.05C1272.69 1273.61 1273.24 1270.43 1275.26 1268.98C1275.3 1268.98 1275.33 1268.98 1275.37 1268.99C1276.31 1269.09 1277.79 1270.19 1278.69 1270.65C1280.76 1271.72 1282.72 1273.64 1282.98 1276.12C1283.17 1277.96 1281.82 1279.79 1279.96 1279.92C1276.91 1280.12 1274.74 1278.98 1273.62 1276.05Z" fill="#757575"/>
<path d="M1269.06 1295.93C1269.06 1292.86 1271.21 1293.36 1273.67 1293.76C1276.41 1296.55 1280.58 1300.73 1277.17 1301.96C1272.96 1303.48 1269.06 1299.98 1269.06 1295.93Z" fill="#757575"/>
<path d="M1315.53 1254.69C1315.77 1250.74 1318.47 1250.43 1321.79 1250.41C1322.21 1250.9 1322.61 1251.44 1322.95 1251.76C1325.61 1254.25 1324.23 1257.61 1321.81 1259.7C1320.81 1260.56 1318.28 1260.18 1317.43 1259.29C1316.22 1258.04 1315.42 1256.44 1315.53 1254.69Z" fill="#757575"/>
<path d="M1299.66 1318.68C1297.2 1316.41 1301.02 1312.82 1302.45 1310.95C1303.18 1311.46 1303.57 1311.93 1303.57 1313.26C1303.57 1314.69 1301.68 1320.54 1299.66 1318.68Z" fill="#757575"/>
<path d="M1333.09 1311.3C1333.09 1309.99 1334.62 1308.7 1336.07 1307.72C1336.9 1308.28 1337.73 1308.9 1338.47 1309.46C1339.45 1310.2 1340.72 1310.57 1340.72 1311.95C1340.72 1312.83 1340.87 1313.63 1339.84 1313.92C1338.25 1314.37 1333.09 1313.56 1333.09 1311.3Z" fill="#757575"/>
<path d="M1376.73 1279.62C1376.07 1278.11 1377.92 1275.73 1379.6 1273.69C1380.68 1274.47 1381.79 1275.19 1382.83 1276.1C1383.71 1276.86 1385.51 1277.91 1385.51 1279.27C1385.51 1279.97 1384.92 1281.65 1384.18 1281.85C1382.14 1282.42 1377.68 1281.79 1376.73 1279.62Z" fill="#757575"/>
<path d="M1377.8 1253.99C1377.24 1251.45 1377.42 1249.66 1378.81 1248.05C1379.39 1248.54 1379.89 1249.18 1380.35 1249.89C1380.92 1250.8 1381.45 1251.76 1382.08 1252.62C1382.94 1253.8 1384.84 1254.95 1385.12 1256.49C1385.18 1256.82 1378.38 1256.6 1377.8 1253.99Z" fill="#757575"/>
<path d="M1397.47 1228.81C1394.7 1228.26 1394.75 1224.85 1395.27 1221.92C1397.54 1222.15 1399.96 1223.44 1400.69 1225.79C1401.42 1228.15 1399.56 1229.23 1397.47 1228.81Z" fill="#757575"/>
<path d="M1386.69 1214.73C1387.22 1212.83 1387.6 1211.73 1388.7 1210.88C1388.91 1211.45 1389.13 1212.02 1389.41 1212.59C1390.27 1214.31 1391.82 1215.93 1390.34 1217.55C1388.59 1219.45 1386.14 1216.69 1386.69 1214.73Z" fill="#757575"/>
<path d="M1449.88 1235.11C1448.71 1233.51 1448.4 1231.4 1447.33 1229.7C1448.39 1229.73 1449.47 1229.84 1450.38 1229.84C1453.28 1229.84 1456.93 1231.34 1457.42 1234.56C1457.76 1236.78 1454.92 1238.06 1453.16 1237.29C1451.75 1236.67 1450.85 1236.44 1449.88 1235.11Z" fill="#757575"/>
<path d="M1424.98 1271.64C1425.09 1269.31 1425.95 1267.28 1427.06 1265.33C1428 1265.76 1428.88 1266.25 1429.63 1266.81C1432.47 1268.97 1432.45 1272.21 1428.97 1273.82C1427.4 1274.54 1424.9 1273.51 1424.98 1271.64Z" fill="#757575"/>
<path d="M1453.85 1288.89C1452.41 1287.2 1452.58 1285.3 1453.25 1283.42C1454.46 1283.92 1455.85 1284.14 1457.09 1284.58C1460.34 1285.74 1461.97 1286.93 1459.15 1290.22C1457.64 1291.99 1455.03 1290.29 1453.85 1288.89Z" fill="#757575"/>
<path d="M1441.77 1309.74C1440.78 1306.66 1442.75 1303.65 1442.89 1300.71C1443.06 1300.76 1443.22 1300.83 1443.38 1300.91C1446.97 1302.67 1451.07 1304.54 1448.52 1309.13C1447.57 1310.83 1446.82 1311.9 1444.83 1311.77C1443.44 1311.67 1442.24 1311.18 1441.77 1309.74Z" fill="#757575"/>
<path d="M1413.78 1287.57C1413.4 1285.32 1414.56 1283.46 1416.04 1282C1416.69 1282.51 1417.21 1283.13 1417.98 1283.66C1420.18 1285.19 1423.8 1286.9 1421.26 1290.04C1420 1291.59 1419.06 1291.79 1417.06 1291.16C1415.88 1290.79 1413.99 1288.82 1413.78 1287.57Z" fill="#757575"/>
<path d="M1401.76 1286.98C1401.92 1286.17 1402.15 1285.48 1402.45 1284.83C1403.47 1285.45 1404.63 1286.04 1405.45 1286.5C1407.52 1287.65 1409.07 1290.56 1407.51 1292.82C1406.4 1294.43 1401.07 1293.69 1400.82 1291.36C1400.69 1290.07 1401.52 1288.25 1401.76 1286.98Z" fill="#757575"/>
<path d="M1296.93 1287.05C1297.85 1285.49 1298.93 1284.39 1300.14 1283.26C1301.53 1283.64 1303.39 1284.04 1303.53 1284.08C1305.25 1284.63 1309.34 1286.15 1307.31 1288.8C1305.85 1290.7 1303 1291.88 1300.65 1292.14C1299.63 1292.25 1296.31 1292.23 1295.68 1291.22C1294.97 1290.08 1296.42 1287.92 1296.93 1287.05Z" fill="#757575"/>
<path d="M1319.56 1297.04C1316.7 1295.96 1317.61 1291.47 1318.36 1288.46C1319.45 1288.54 1320.57 1288.49 1321.63 1288.75C1322.97 1289.07 1327.17 1290.55 1327.43 1292.03C1327.91 1294.65 1321.66 1297.83 1319.56 1297.04Z" fill="#757575"/>
<path d="M1395.81 1253.06C1395.54 1250.63 1397.52 1248.98 1399.47 1247.38C1400.54 1247.98 1401.8 1248.28 1402.68 1249.16C1404.43 1250.9 1405.45 1254.43 1403.75 1256.55C1403.3 1257.12 1400.65 1256.74 1400.01 1256.49C1398.28 1255.81 1396.05 1255.22 1395.81 1253.06Z" fill="#757575"/>
<path d="M1441.09 1255.72C1436.79 1255.85 1433.65 1250.13 1431.59 1246.52C1432.02 1246.34 1432.46 1246.2 1432.93 1246.14C1434.72 1245.9 1436.79 1246.02 1438.57 1246.26C1440.05 1246.47 1441.02 1247.38 1442.38 1247.94C1444.56 1248.84 1443.96 1255.63 1441.09 1255.72Z" fill="#757575"/>
<path d="M154.845 -9.778C160.765 -11.1633 165.312 -8.35317 170.314 -5.87445C174.265 -5.85897 171.85 2.35359 170.837 4.14557C169.912 5.78021 168.726 8.79692 166.847 9.50796C163.732 10.6868 161.182 12.5498 157.684 12.7195C156.188 12.7921 153.817 11.7071 152.533 11.0479C151.709 10.6247 150.01 10.3348 149.348 9.85743C147.52 8.54007 145.079 6.97341 145.041 4.68618C144.976 0.727493 146.366 -3.93288 149.351 -6.97504C150.984 -8.6394 152.425 -9.21171 154.845 -9.778Z" fill="#F1E5C4"/>
<path d="M123.857 4.67656C128.225 4.46462 130.211 6.97413 132.174 9.80838C134.224 9.77734 135.311 12.2225 135.381 13.6673C135.537 16.8736 136.26 20.2348 134.764 23.1702C132.599 27.4178 129.188 30.9218 124.708 33.3233C119.382 36.1777 112.873 32.7823 108.815 29.8863C104.646 26.9112 99.4821 23.662 100.313 18.2702C100.865 14.686 102.255 9.77991 106.605 8.35741C108.02 7.89478 109.292 6.89384 110.797 6.71292C112.162 6.54883 113.506 6.3386 114.868 6.15029C117.923 5.72816 120.758 4.8269 123.857 4.67656Z" fill="#F1E5C4"/>
<path d="M104.023 41.3788C105.419 42.1777 106.285 42.9671 107.083 43.9233C107.299 44.0339 107.517 44.1285 107.74 44.196C108.524 44.4331 110.196 46.0567 110.77 46.6238C111.775 47.6165 112.746 48.8018 113.458 49.9905C116.181 54.5397 111.193 57.424 107.541 60.0964C106.306 61.0001 104.939 61.8292 103.491 62.4258C101.603 63.2036 100.055 64.5616 98.1033 65.2044C96.3134 65.7939 92.6181 66.0613 90.8497 65.5371C85.3642 63.9113 81.5313 59.4646 81.4371 54.2727C81.3941 51.9049 82.7693 48.9074 83.7897 46.7415C85.1871 43.7753 86.7373 41.4508 89.653 39.5397C94.149 36.5927 99.9597 39.0542 104.023 41.3788Z" fill="#F1E5C4"/>
<path d="M65.9688 36.0196C69.4457 37.4576 70.8562 40.9215 70.9444 44.5362C73.2984 52.3361 65.1825 59.7498 56.5056 60.1708C54.3076 60.2774 51.6888 60.3896 49.8372 59.2261C47.4851 57.7482 45.498 55.943 43.5677 54.0541C40.3026 50.8589 40.1596 47.6092 42.0961 43.7302C44.5482 38.8182 48.6605 34.9571 54.8578 34.6564C58.3627 34.4863 62.7595 34.6922 65.9688 36.0196Z" fill="#F1E5C4"/>
<path d="M82.3552 69.6385C83.4884 70.5534 84.4318 71.656 84.9968 72.9008C85.0161 73.4601 85.1826 74.1119 85.1168 74.5388C84.8608 76.2006 83.9764 77.7879 82.8792 79.1052C80.5321 81.9232 76.9494 82.6162 73.8411 80.0049C72.1371 78.5735 72.6387 76.9012 72.9284 74.9765C73.2492 72.8444 75.189 71.5114 77.1515 70.429C78.3927 69.7444 81.0652 68.597 82.3552 69.6385Z" fill="#F1E5C4"/>
<path d="M169.351 21.9917C171.86 23.2575 171.801 27.2257 171.881 29.6121C171.62 30.3687 171.236 31.131 170.905 31.7928C170.202 33.2012 168.789 33.6905 167.639 34.7183C166.044 36.1431 163.034 36.3252 160.926 36.4274C158.636 36.5385 156.657 35.9508 155.696 33.9911C154.807 32.1788 154.099 29.2206 155.155 27.2921C155.641 26.4036 155.789 25.5143 156.015 24.5603C156.204 23.7611 156.789 23.7333 157.325 23.1132C158.379 21.8933 159.406 21.9747 161.041 21.8953C163.403 21.7807 167.224 20.9186 169.351 21.9917Z" fill="#F1E5C4"/>
<path d="M138.653 36.6433C144.66 34.0099 152.546 37.9838 155.641 43.2256C155.677 43.3941 155.721 43.5449 155.777 43.6714C156.471 45.2294 156.743 46.593 156.494 48.2098C155.993 51.4574 152.942 54.1665 150.169 56.1258C147.69 57.8771 145.016 61.3226 141.589 61.5764C139.38 61.74 137.8 61.3579 135.742 60.6688C132.14 59.4626 128.569 58.5527 127.129 55.2069C123.415 46.5812 130.509 40.2137 138.653 36.6433Z" fill="#F1E5C4"/>
<path d="M76.9548 9.91123C80.5338 8.79367 84.657 9.62358 87.2192 12.043C90.5712 12.3064 94.2441 14.9436 96.0241 17.0179C97.1599 18.3415 96.1109 21.2773 95.7398 22.7193C95.5414 23.4905 95.7781 24.6036 95.3461 25.2748C94.8811 25.9973 94.2773 26.8803 94.1486 27.7155C93.5329 31.712 89.5119 35.0501 85.1526 35.2616C80.3041 35.4968 76.6068 34.9556 72.6141 32.4881C68.7024 30.0706 67.6384 25.9719 67.4428 21.9402C67.176 16.4407 71.0948 11.7411 76.9548 9.91123Z" fill="#F1E5C4"/>
<path d="M122.661 63.6092C124.73 64.5112 124.96 65.4807 124.264 66.8325C124.81 67.3493 125.344 67.8793 125.607 68.7504C126.041 70.1899 125.773 71.7179 124.258 72.5243C122.105 73.6706 121.094 74.6762 118.544 74.7999C116.176 74.9148 115.084 74.8139 113.042 73.8755C107.818 71.475 112.115 63.3522 117.179 63.1066C119.13 63.0119 120.892 62.8384 122.661 63.6092Z" fill="#F1E5C4"/>
<path d="M804.022 46.8614C808.309 51.1726 808.305 56.5179 808.822 62.0757C810.884 65.447 802.626 67.7039 800.569 67.7822C798.692 67.8536 795.503 68.4287 793.911 67.2027C791.272 65.1703 788.347 63.9785 786.366 61.0907C785.519 59.8559 785.197 57.2683 785.084 55.8297C785.011 54.9061 784.366 53.3079 784.424 52.4934C784.586 50.2458 784.637 47.346 786.564 46.1131C789.899 43.9791 794.595 42.7147 798.751 43.6574C801.025 44.1731 802.269 45.0991 804.022 46.8614Z" fill="#F1E5C4"/>
<path d="M775.449 28.0794C777.923 31.6855 776.83 34.693 775.448 37.8522C776.551 39.5805 775.041 41.7897 773.848 42.6079C771.201 44.4239 768.721 46.8042 765.437 47.0723C760.685 47.4603 755.912 46.3979 751.516 43.8455C746.29 40.8116 745.762 33.4896 746.096 28.5153C746.439 23.4054 746.492 17.3044 751.517 15.1802C754.857 13.7681 759.762 12.3744 763.257 15.3303C764.394 16.2917 765.914 16.8479 766.858 18.0339C767.714 19.1096 768.599 20.1426 769.475 21.2034C771.438 23.5815 773.694 25.5213 775.449 28.0794Z" fill="#F1E5C4"/>
<path d="M733.798 30.4716C733.852 32.0795 733.634 33.2307 733.24 34.412C733.259 34.6535 733.293 34.8895 733.353 35.1147C733.563 35.9061 733.059 38.1819 732.878 38.9682C732.561 40.3447 732.062 41.7932 731.424 43.023C728.982 47.7295 723.908 44.9992 719.716 43.2944C718.299 42.7179 716.875 41.9898 715.607 41.0705C713.954 39.8721 711.985 39.2676 710.413 37.9444C708.972 36.7307 706.804 33.7262 706.321 31.946C704.825 26.4239 706.596 20.8269 710.965 18.0205C712.958 16.7406 716.231 16.3371 718.61 16.0682C721.868 15.6999 724.661 15.7986 727.818 17.2765C732.687 19.5554 733.643 25.793 733.798 30.4716Z" fill="#F1E5C4"/>
<path d="M718.377 -4.72818C718.979 -1.01413 716.772 2.00521 713.742 3.97829C708.34 10.0773 697.769 7.06323 692.854 -0.100134C691.61 -1.91477 690.139 -4.08456 690.157 -6.27128C690.18 -9.04906 690.673 -11.6881 691.266 -14.3227C692.271 -18.7793 694.962 -20.6073 699.28 -20.9962C704.748 -21.4885 710.193 -20.0162 713.703 -14.8999C715.688 -12.0064 717.822 -8.1564 718.377 -4.72818Z" fill="#F1E5C4"/>
<path d="M698.371 26.8704C698.187 28.3153 697.744 29.6971 696.982 30.8316C696.516 31.1417 696.048 31.6257 695.651 31.7939C694.102 32.4485 692.287 32.5294 690.589 32.2873C686.959 31.7696 684.488 29.0844 685.078 25.0679C685.401 22.8661 687.088 22.4149 688.878 21.6507C690.861 20.8043 693.014 21.7552 694.966 22.857C696.2 23.5538 698.58 25.2258 698.371 26.8704Z" fill="#F1E5C4"/>
<path d="M814.009 27.4934C813.598 30.125 810.022 32.788 808.106 34.156L807.679 34.4492C806.555 35.2197 805.89 34.8384 804.632 34.8933C803.124 34.9592 801.362 34.4888 799.914 33.8184C797.633 32.762 794.662 31.7765 792.585 30.328L792.561 30.3107C789.32 28.05 785.316 25.2574 784.96 20.8748C784.581 16.223 785.285 12.1934 786.972 8.10129C787.97 5.68338 789.766 4.96753 791.928 3.89152C792.863 3.42612 795.46 3.49976 796.491 3.79188C798.071 4.2391 799.641 4.05205 801.219 4.44142C803.1 4.90526 805.761 5.51667 807.347 6.92691C811.769 10.8599 815.438 15.1051 814.665 21.19C814.399 23.2802 814.329 25.4411 814.009 27.4934Z" fill="#F1E5C4"/>
<path d="M784.601 75.8889C784.841 78.689 781.433 80.7223 779.444 82.0438C778.663 82.2188 777.813 82.2917 777.076 82.358C775.508 82.4992 774.35 81.5537 772.871 81.1143C770.821 80.5051 769.085 78.039 767.892 76.2994C766.595 74.4087 766.056 72.4157 767.219 70.5685C768.294 68.8601 770.44 66.7046 772.636 66.5907C773.648 66.5382 774.482 66.1965 775.412 65.8879C776.192 65.6293 776.523 66.1129 777.332 66.2433C778.924 66.4998 779.393 67.416 780.32 68.7662C781.658 70.7165 784.397 73.5149 784.601 75.8889Z" fill="#F1E5C4"/>
<path d="M756.013 57.4571C761.408 61.1866 762.167 69.9844 759.331 75.3705C759.206 75.4896 759.101 75.6064 759.023 75.7208C758.062 77.1296 757.044 78.0766 755.537 78.7135C752.511 79.993 748.603 78.8186 745.479 77.4875C742.687 76.2977 738.351 75.8313 736.335 73.0476C735.036 71.2536 734.532 69.7082 734.037 67.595C733.172 63.8961 732.072 60.3795 734.163 57.3967C739.554 49.7067 748.698 52.4007 756.013 57.4571Z" fill="#F1E5C4"/>
<path d="M746.366 -9.08782C749.196 -6.62875 750.655 -2.68396 749.941 0.767C751.477 3.75805 751.161 8.26856 750.331 10.8726C749.801 12.5343 746.751 13.1831 745.329 13.6245C744.569 13.8606 743.746 14.6465 742.948 14.6313C742.089 14.6149 741.02 14.5647 740.242 14.8938C736.517 16.4683 731.565 14.799 729.096 11.2001C726.35 7.19731 724.869 3.76661 724.873 -0.927021C724.876 -5.52547 727.805 -8.58315 731.134 -10.8667C735.674 -13.9815 741.731 -13.1142 746.366 -9.08782Z" fill="#F1E5C4"/>
<path d="M724.666 58.0065C724.985 60.2413 724.281 60.9457 722.765 61.0637C722.612 61.7995 722.441 62.5322 721.838 63.2132C720.841 64.3386 719.4 64.9132 717.918 64.0472C715.811 62.8163 714.425 62.4838 712.981 60.3792C711.64 58.4244 711.152 57.4416 710.878 55.211C710.178 49.5044 719.348 48.8969 722.215 53.0771C723.321 54.6881 724.394 56.0967 724.666 58.0065Z" fill="#F1E5C4"/>
<path d="M1064.36 1893.81C1062.5 1893.21 1060.11 1892.7 1058.49 1894.16C1057.02 1895.48 1057.45 1898.61 1058.14 1900.17C1058.69 1901.41 1061.12 1900.88 1062.19 1900.88C1063.33 1900.88 1064.89 1900.03 1065.35 1899.03C1066.16 1897.25 1065.01 1895.13 1063.51 1894.38" stroke="#757575" stroke-width="12" stroke-linecap="round"/>
<path d="M1041.47 1872.9C1040.04 1871.86 1036.67 1870.55 1036.67 1873.47C1036.67 1875.67 1036.19 1878.88 1038.65 1880.11C1040.96 1881.26 1045.58 1881.03 1044.3 1877.27C1043.87 1876.02 1042.95 1874.94 1042.04 1874.03C1041.58 1873.57 1040.62 1872.91 1040.62 1872.34" stroke="#757575" stroke-width="12" stroke-linecap="round"/>
<path d="M1045.71 1858.21C1043.79 1857.46 1040.83 1857.52 1039.63 1859.64C1038.11 1862.35 1040.37 1865.21 1043.04 1865.9C1045.55 1866.55 1047.12 1865.24 1047.12 1862.59C1047.12 1862.11 1047.3 1861.15 1046.98 1860.77C1046.57 1860.27 1045.71 1859.4 1045.71 1858.77" stroke="#757575" stroke-width="12" stroke-linecap="round"/>
<path d="M1062.1 1838.71C1061.32 1838.71 1057.18 1838.16 1056.51 1838.77C1055.28 1839.9 1055.61 1843.22 1056.87 1844.06C1058.79 1845.34 1061.58 1845.96 1062.82 1843.66C1063.25 1842.86 1065.25 1839.57 1063.51 1838.99" stroke="#757575" stroke-width="12" stroke-linecap="round"/>
<path d="M1075.1 1823.45C1072.27 1824.11 1069.73 1825.99 1069.73 1829.1C1069.73 1832.33 1073.27 1834.48 1076.29 1833.22C1078.05 1832.48 1078.49 1830.36 1078.49 1828.69C1078.49 1827.56 1078.94 1825.15 1078.27 1824.24C1077.74 1823.51 1078.38 1822.6 1077.01 1822.6C1075.96 1822.6 1075.11 1822.88 1074.25 1823.45" stroke="#757575" stroke-width="12" stroke-linecap="round"/>
<path d="M1106.75 1857.36C1105.79 1859.87 1105.05 1864.59 1108.18 1865.96C1111.54 1867.44 1114.66 1866.13 1114.66 1862.16C1114.66 1860.03 1113.74 1857.2 1111.39 1856.78C1110.43 1856.6 1109.74 1855.89 1108.73 1855.95C1107.91 1855.99 1107.88 1858.14 1107.88 1858.77" stroke="#757575" stroke-width="12" stroke-linecap="round"/>
<path d="M1141.79 1831.93C1139.66 1832.37 1137.6 1835.68 1137.55 1837.92C1137.53 1838.89 1137.31 1840.6 1138.26 1841.24C1139.39 1841.99 1141.38 1841.55 1142.37 1840.8C1143.9 1839.62 1145.15 1837.33 1145.18 1835.38C1145.19 1834.4 1145.58 1832.22 1144.88 1831.39C1143.64 1829.95 1141.79 1831.08 1140.66 1831.65" stroke="#757575" stroke-width="12" stroke-linecap="round"/>
<path d="M1156.48 1812.71C1155.13 1811.94 1150.22 1809.98 1149.48 1812.21C1148.48 1815.22 1149.65 1818.93 1152.26 1820.72C1154.77 1822.44 1157.44 1821.28 1158.18 1818.52C1159.06 1815.23 1154.95 1814.01 1153.09 1812.15" stroke="#757575" stroke-width="12" stroke-linecap="round"/>
<path d="M1109.01 1816.39C1106.09 1816.45 1104.8 1818.18 1103.64 1820.62C1102.18 1823.71 1104.58 1826.71 1107.78 1826.56C1110.27 1826.44 1117.28 1823.12 1114.03 1819.71C1112.41 1818.01 1108.89 1816.39 1106.47 1816.39" stroke="#757575" stroke-width="12" stroke-linecap="round"/>
<path d="M1090.08 1795.48C1087.67 1794.24 1085.92 1792.45 1084.02 1790.55C1083.33 1789.86 1082.43 1788.65 1081.38 1788.69C1078.64 1788.8 1079.7 1795.69 1080.53 1796.89C1083 1800.45 1086.64 1800.8 1090.23 1798.87C1091.43 1798.22 1091.46 1796.67 1091.02 1795.46C1090.02 1792.74 1087.05 1790.95 1084.42 1790.39" stroke="#757575" stroke-width="12" stroke-linecap="round"/>
<path d="M1110.42 1778.52C1110.04 1778.25 1107.17 1776.1 1107.03 1777.8C1106.84 1780.13 1105.83 1782.44 1107.01 1784.61C1108.79 1787.86 1113.28 1778.4 1111.27 1777.39" stroke="#757575" stroke-width="12" stroke-linecap="round"/>
<path d="M1076.23 1758.17C1075.11 1760.75 1074.4 1766.46 1076.35 1768.77C1076.79 1769.29 1077.38 1770.3 1078.14 1770.33C1079.83 1770.38 1081.26 1768.21 1081.91 1766.9C1082.92 1764.89 1082.14 1762.19 1080.47 1760.88C1079.39 1760.03 1078.67 1759.31 1077.36 1759.31" stroke="#757575" stroke-width="12" stroke-linecap="round"/>
<path d="M1041.75 1779.65C1039.36 1780.57 1037.91 1780.85 1036.26 1782.73C1035.96 1783.07 1035.96 1784.06 1035.88 1784.52C1035.58 1786.2 1036.32 1787.34 1037.45 1788.51C1040.53 1791.65 1044.4 1787.2 1045.41 1784.06C1046.58 1780.48 1042.7 1780.4 1040.06 1779.65" stroke="#757575" stroke-width="12" stroke-linecap="round"/>
<path d="M1024.8 1783.32C1024.84 1785.29 1025.59 1787.19 1025.65 1789.1C1025.7 1791.09 1027.08 1791.85 1027.91 1793.51C1028.42 1794.53 1030.55 1795.17 1031.64 1795.19C1034.08 1795.25 1034.69 1792.61 1034.69 1790.55C1034.69 1786.79 1034.48 1783.6 1030.67 1782.19C1028.98 1781.57 1026.57 1781.76 1024.85 1782.19C1023.79 1782.46 1023.31 1785.77 1023.1 1786.72" stroke="#757575" stroke-width="12" stroke-linecap="round"/>
<path d="M1035.54 1816.1C1034.2 1818 1033.56 1819.56 1033.56 1821.82C1033.56 1822.31 1033.43 1823.71 1034.19 1823.73C1035.31 1823.77 1037.16 1824.05 1038.22 1823.54C1040.19 1822.6 1041.91 1820.01 1041.31 1817.81C1040.5 1814.78 1034.6 1815.82 1032.43 1815.82" stroke="#757575" stroke-width="12" stroke-linecap="round"/>
<path d="M829.281 1769.37C830.118 1770.31 838.441 1781.63 840.225 1777.42C840.76 1776.16 840.506 1774.09 840.432 1772.76C840.27 1769.84 838.457 1768.88 836.389 1767C835.085 1765.82 833.241 1765.32 831.726 1764.44C831.202 1764.14 828.527 1764 828.304 1764.5C827.927 1765.35 828.266 1766.91 828.266 1767.85C828.266 1768.63 828.943 1768.64 828.943 1769.37" stroke="#757575" stroke-width="12" stroke-linecap="round"/>
<path d="M850.605 1761.92C848.339 1762.84 846.046 1763.64 845.001 1765.99C843.625 1769.08 848.817 1771.08 850.981 1771.33C853.939 1771.66 855.933 1768.5 855.268 1765.72C854.759 1763.59 851.932 1762.36 850.266 1761.25" stroke="#757575" stroke-width="12" stroke-linecap="round"/>
<path d="M870.235 1749.06C868.312 1750.02 865.788 1751.71 866.193 1754.35C866.71 1757.71 872.05 1757.52 874.391 1757.52C876.691 1757.52 875.677 1753.7 874.786 1752.52C873.235 1750.47 870.822 1749.37 868.882 1747.71" stroke="#757575" stroke-width="12" stroke-linecap="round"/>
<path d="M850.266 1731.12C851.559 1733.93 852.635 1736.81 852.635 1739.92C852.635 1741.05 853.513 1740.99 854.478 1740.94C857.178 1740.79 860.883 1736.43 859.029 1733.78C857.093 1731.01 856.188 1728.84 852.974 1727.59C850.093 1726.47 849.928 1729.29 849.928 1731.46" stroke="#757575" stroke-width="12" stroke-linecap="round"/>
<path d="M831.651 1741.28C830.026 1743.01 827.998 1746.67 827.928 1749.06C827.9 1750.01 827.861 1751.59 829.056 1751.77C830.235 1751.95 832.67 1752.62 833.757 1751.85C835.437 1750.65 836.789 1746.35 835.712 1744.4C835.262 1743.58 834.986 1742.69 834.358 1741.97C833.648 1741.16 832.607 1741.04 832.328 1739.92" stroke="#757575" stroke-width="12" stroke-linecap="round"/>
<path d="M828.605 1716.23C827.664 1717.47 825.482 1719.22 825.239 1720.8C824.904 1722.98 827.578 1725.36 829.62 1723.94C831.543 1722.61 833.312 1715.21 830.297 1714.2" stroke="#757575" stroke-width="12" stroke-linecap="round"/>
<path d="M806.604 1718.6C805.83 1716.84 803.319 1712.85 801.114 1712.85C797.56 1712.85 797.189 1716.32 798.162 1719.24C799.005 1721.77 800.95 1723.18 803.389 1724.02C804.631 1724.44 806.839 1725.49 807.451 1723.79C808.298 1721.44 808.038 1719.93 806.473 1718.09C805.376 1716.81 805.071 1714.99 804.235 1713.52" stroke="#757575" stroke-width="12" stroke-linecap="round"/>
<path d="M797.128 1747.37C796.066 1749.07 793.179 1750.48 793.066 1752.45C792.859 1756.08 792.839 1758.42 796.489 1760.31C800.535 1762.41 805.47 1758.77 804.085 1754.1C802.852 1749.95 798.669 1750 795.436 1748.39" stroke="#757575" stroke-width="12" stroke-linecap="round"/>
<path d="M779.528 1769.03C777.505 1767.88 773.212 1767.05 771.179 1768.54C768.505 1770.5 766.073 1772.85 769.054 1775.95C771.309 1778.3 779.787 1778.1 780.806 1774.3C781.314 1772.4 780.937 1770.06 779.528 1768.69C778.928 1768.11 777.787 1768.26 777.497 1767.68" stroke="#757575" stroke-width="12" stroke-linecap="round"/>
<path d="M809.312 1777.49C806.541 1777.54 804.628 1778.59 802.016 1779.37C800.91 1779.71 799.376 1779.66 798.989 1780.9C798.202 1783.42 800.569 1786.45 803.163 1786.61C805.494 1786.76 813.484 1786.29 813.374 1782.42C813.272 1778.87 807.412 1779.92 806.605 1777.49" stroke="#757575" stroke-width="12" stroke-linecap="round"/>
<path d="M809.312 1789.34C813.807 1790.06 817.111 1790.03 821.497 1789.08C822.54 1788.85 824.245 1788.36 825.371 1788.68C826.43 1788.98 824.774 1791.98 824.468 1792.31C823.344 1793.51 821.923 1794.6 820.425 1795.28C816.607 1797.03 812.727 1795.52 809.388 1793.4C806.364 1791.49 812.094 1789.92 813.035 1788.66" stroke="#757575" stroke-width="12" stroke-linecap="round"/>
<path d="M853.313 1792.72C852.213 1792.52 848.843 1792.37 848.593 1794.12C848.295 1796.2 850.96 1797.54 852.617 1797.75C854.358 1797.96 858.439 1797.2 858.653 1794.94C858.991 1791.35 851.347 1789.73 848.913 1789" stroke="#757575" stroke-width="12" stroke-linecap="round"/>
<path d="M838.42 1817.43C838.498 1819.43 839.881 1822.31 842.143 1822.81C844.026 1823.23 844.765 1819.76 845.039 1818.45C845.79 1814.84 841.79 1813.71 839.097 1813.71" stroke="#757575" stroke-width="12" stroke-linecap="round"/>
<path d="M819.466 1812.69C817.872 1813 815.665 1812.89 814.239 1813.71C812.666 1814.61 815.577 1818.03 816.232 1818.52C816.956 1819.07 817.77 1819.45 818.676 1819.46C820.818 1819.5 821.323 1819.66 821.817 1817.36C822.908 1812.27 821.309 1811.42 816.759 1810.66" stroke="#757575" stroke-width="12" stroke-linecap="round"/>
<path d="M790.697 1800.51C788.401 1802.8 785.717 1805.6 782.912 1807.28C779.435 1809.36 781.512 1813.24 785.093 1813.63C788.043 1813.96 791.234 1813.02 793.254 1810.74C794.144 1809.73 795.498 1807.75 794.946 1806.34C793.813 1803.44 789.366 1800.69 786.635 1802.88" stroke="#757575" stroke-width="12" stroke-linecap="round"/>
<path d="M808.635 1836.72C806.893 1837.49 805.928 1839.06 805.928 1841.05C805.928 1842.85 808.251 1844.27 809.876 1843.68C811.631 1843.05 813.968 1841.94 813.148 1839.62C812.451 1837.65 811.269 1837.06 809.312 1837.06" stroke="#757575" stroke-width="12" stroke-linecap="round"/>
<path d="M1305.48 1434.64C1303.81 1426.52 1308.42 1420.55 1312.56 1413.93C1312.88 1408.58 1325.19 1412.39 1327.84 1413.88C1330.26 1415.24 1334.76 1417.05 1335.7 1419.64C1337.27 1423.94 1339.91 1427.52 1339.91 1432.27C1339.91 1434.3 1338.09 1437.44 1336.99 1439.14C1336.29 1440.23 1335.72 1442.51 1334.94 1443.37C1332.8 1445.76 1330.24 1448.97 1326.76 1448.87C1320.73 1448.7 1313.75 1446.51 1309.34 1442.26C1306.93 1439.94 1306.16 1437.95 1305.48 1434.64Z" fill="#F1E5C4"/>
<path d="M1325.18 1477.57C1325.18 1471.64 1329.15 1469.11 1333.6 1466.64C1333.71 1463.86 1337.51 1462.55 1339.71 1462.55C1344.6 1462.55 1349.76 1461.79 1354.12 1464.01C1360.42 1467.22 1365.5 1472.07 1368.82 1478.3C1372.77 1485.71 1367.12 1494.3 1362.42 1499.61C1357.59 1505.06 1352.26 1511.85 1344.12 1510.37C1338.71 1509.38 1331.35 1507.18 1329.51 1501.19C1328.91 1499.24 1327.48 1497.45 1327.32 1495.4C1327.17 1493.54 1326.95 1491.71 1326.76 1489.85C1326.34 1485.68 1325.18 1481.78 1325.18 1477.57Z" fill="#F1E5C4"/>
<path d="M1379.55 1506.86C1380.86 1505.02 1382.13 1503.9 1383.64 1502.88C1383.83 1502.59 1383.99 1502.3 1384.11 1502.01C1384.52 1500.96 1387.12 1498.8 1388.02 1498.06C1389.61 1496.76 1391.48 1495.53 1393.34 1494.64C1400.46 1491.25 1404.48 1498.2 1408.28 1503.32C1409.56 1505.05 1410.72 1506.96 1411.52 1508.96C1412.57 1511.57 1414.52 1513.76 1415.35 1516.45C1416.12 1518.91 1416.25 1523.93 1415.32 1526.3C1412.44 1533.62 1405.4 1538.52 1397.49 1538.31C1393.89 1538.21 1389.43 1536.15 1386.21 1534.63C1381.8 1532.54 1378.38 1530.28 1375.69 1526.21C1371.54 1519.92 1375.71 1512.21 1379.55 1506.86Z" fill="#F1E5C4"/>
<path d="M1368.59 1558.07C1371.03 1553.45 1376.4 1551.77 1381.91 1551.89C1393.95 1549.21 1404.62 1560.69 1404.62 1572.48C1404.62 1575.46 1404.6 1579.02 1402.7 1581.45C1400.27 1584.54 1397.38 1587.11 1394.37 1589.6C1389.26 1593.82 1384.31 1593.8 1378.55 1590.92C1371.26 1587.27 1365.69 1581.45 1365.69 1573.03C1365.69 1568.27 1366.33 1562.33 1368.59 1558.07Z" fill="#F1E5C4"/>
<path d="M1420.93 1538.07C1422.41 1536.6 1424.16 1535.39 1426.09 1534.71C1426.94 1534.72 1427.95 1534.54 1428.59 1534.65C1431.1 1535.11 1433.45 1536.41 1435.37 1537.99C1439.49 1541.35 1440.28 1546.25 1436.07 1550.29C1433.77 1552.51 1431.26 1551.72 1428.36 1551.2C1425.14 1550.62 1423.25 1547.91 1421.75 1545.18C1420.8 1543.45 1419.25 1539.75 1420.93 1538.07Z" fill="#F1E5C4"/>
<path d="M1276.25 1448.64C1279.04 1446.01 1285.82 1445.77 1289.41 1445.71H1290.19C1292.27 1445.71 1292.78 1446.65 1294.4 1447.55C1296.35 1448.64 1298.16 1450.52 1299.4 1452.38C1301.36 1455.31 1304.24 1458.69 1305.6 1461.91L1305.61 1461.94C1307.74 1466.96 1310.36 1473.16 1307.03 1478.33C1303.5 1483.83 1299.14 1487.79 1293.5 1491.08C1290.16 1493.01 1287.29 1492.44 1283.65 1491.98C1282.07 1491.78 1278.88 1489.71 1277.83 1488.59C1276.23 1486.88 1274.1 1485.88 1272.45 1484.24C1270.49 1482.27 1267.68 1479.55 1266.9 1476.75C1264.74 1468.96 1263.78 1461.4 1270 1455.18C1272.13 1453.05 1274.08 1450.69 1276.25 1448.64Z" fill="#F1E5C4"/>
<path d="M1354.88 1417.07C1356.99 1413.75 1363.02 1414.09 1366.66 1414.14C1367.79 1414.54 1368.92 1415.12 1369.9 1415.61C1371.99 1416.65 1372.63 1418.6 1374.11 1420.23C1376.16 1422.48 1376.21 1426.57 1376.21 1429.43C1376.21 1432.54 1375.17 1435.19 1372.12 1436.36C1369.3 1437.45 1364.75 1438.21 1361.89 1436.65C1360.58 1435.93 1359.24 1435.68 1357.8 1435.31C1356.6 1435 1356.6 1434.2 1355.7 1433.44C1353.92 1431.93 1354.12 1430.54 1354.12 1428.32C1354.12 1425.11 1353.09 1419.88 1354.88 1417.07Z" fill="#F1E5C4"/>
<path d="M1374.9 1459.63C1371.34 1451.31 1377.96 1440.89 1386.17 1437.04C1386.42 1437 1386.66 1436.95 1386.85 1436.89C1389.27 1436.05 1391.37 1435.77 1393.81 1436.21C1398.71 1437.1 1402.61 1441.42 1405.38 1445.3C1407.87 1448.78 1412.91 1452.63 1413.04 1457.29C1413.13 1460.29 1412.43 1462.41 1411.23 1465.15C1409.13 1469.95 1407.48 1474.73 1402.29 1476.46C1388.89 1480.93 1379.73 1470.9 1374.9 1459.63Z" fill="#F1E5C4"/>
<path d="M1329.68 1541.47C1328.25 1536.54 1329.81 1531.01 1333.68 1527.7C1334.33 1523.17 1338.61 1518.37 1341.9 1516.09C1344 1514.64 1348.39 1516.26 1350.55 1516.85C1351.71 1517.17 1353.42 1516.93 1354.41 1517.56C1355.47 1518.23 1356.77 1519.11 1358.03 1519.34C1364.07 1520.44 1368.85 1526.1 1368.85 1532.02C1368.85 1538.61 1367.75 1543.58 1363.7 1548.83C1359.74 1553.97 1353.43 1555.14 1347.28 1555.14C1338.89 1555.14 1332.03 1549.53 1329.68 1541.47Z" fill="#F1E5C4"/>
<path d="M1414.74 1483.07C1416.26 1480.32 1417.75 1480.07 1419.76 1481.11C1420.59 1480.4 1421.43 1479.71 1422.78 1479.41C1425 1478.92 1427.3 1479.38 1428.42 1481.49C1430 1484.48 1431.46 1485.92 1431.46 1489.38C1431.46 1492.6 1431.22 1494.07 1429.64 1496.77C1425.61 1503.7 1413.57 1497.34 1413.57 1490.46C1413.57 1487.81 1413.43 1485.41 1414.74 1483.07Z" fill="#F1E5C4"/>
<path d="M1239.23 439.465C1237.56 431.352 1242.17 425.376 1246.31 418.763C1246.62 413.41 1258.94 417.222 1261.59 418.713C1264.01 420.073 1268.51 421.878 1269.45 424.471C1271.01 428.77 1273.66 432.347 1273.66 437.098C1273.66 439.129 1271.83 442.271 1270.74 443.966C1270.03 445.055 1269.46 447.338 1268.69 448.205C1266.55 450.595 1263.99 453.799 1260.51 453.7C1254.48 453.527 1247.49 451.338 1243.09 447.094C1240.67 444.772 1239.91 442.782 1239.23 439.465Z" fill="#F1E5C4"/>
<path d="M1258.93 482.402C1258.93 476.47 1262.89 473.944 1267.35 471.47C1267.45 468.691 1271.25 467.378 1273.45 467.378C1278.34 467.378 1283.51 466.62 1287.86 468.84C1294.17 472.052 1299.24 476.903 1302.57 483.133C1306.51 490.537 1300.87 499.132 1296.16 504.44C1291.33 509.893 1286.01 516.676 1277.87 515.196C1272.46 514.212 1265.1 512.007 1263.25 506.019C1262.65 504.071 1261.23 502.283 1261.06 500.231C1260.91 498.371 1260.69 496.537 1260.51 494.678C1260.09 490.511 1258.93 486.61 1258.93 482.402Z" fill="#F1E5C4"/>
<path d="M1313.29 511.689C1314.61 509.849 1315.88 508.728 1317.39 507.71C1317.57 507.425 1317.73 507.135 1317.85 506.837C1318.27 505.791 1320.86 503.632 1321.77 502.891C1323.35 501.595 1325.23 500.357 1327.09 499.471C1334.21 496.08 1338.23 503.028 1342.02 508.152C1343.31 509.885 1344.47 511.792 1345.27 513.793C1346.31 516.402 1348.26 518.589 1349.1 521.276C1349.86 523.74 1350 528.764 1349.07 531.126C1346.19 538.451 1339.14 543.352 1331.24 543.139C1327.63 543.041 1323.18 540.981 1319.96 539.456C1315.55 537.367 1312.13 535.114 1309.43 531.038C1305.28 524.753 1309.46 517.041 1313.29 511.689Z" fill="#F1E5C4"/>
<path d="M1302.33 562.897C1304.78 558.281 1310.15 556.597 1315.65 556.715C1327.69 554.039 1338.37 565.522 1338.37 577.307C1338.37 580.292 1338.35 583.848 1336.44 586.28C1334.02 589.37 1331.13 591.943 1328.11 594.435C1323.01 598.649 1318.06 598.629 1312.3 595.75C1305.01 592.105 1299.44 586.279 1299.44 577.862C1299.44 573.102 1300.08 567.158 1302.33 562.897Z" fill="#F1E5C4"/>
<path d="M1354.68 542.905C1356.16 541.429 1357.9 540.224 1359.84 539.54C1360.69 539.551 1361.69 539.368 1362.34 539.485C1364.85 539.941 1367.2 541.244 1369.12 542.817C1373.23 546.182 1374.02 551.082 1369.82 555.122C1367.52 557.337 1365.01 556.547 1362.1 556.028C1358.88 555.453 1357 552.738 1355.5 550.007C1354.55 548.281 1353 544.584 1354.68 542.905Z" fill="#F1E5C4"/>
<path d="M1210 453.466C1212.78 450.837 1219.57 450.603 1223.15 450.543H1223.94C1226.02 450.543 1226.52 451.48 1228.15 452.384C1230.1 453.468 1231.91 455.346 1233.15 457.207C1235.1 460.139 1237.98 463.522 1239.34 466.735L1239.36 466.774C1241.48 471.79 1244.1 477.986 1240.78 483.162C1237.24 488.656 1232.89 492.623 1227.24 495.905C1223.91 497.845 1221.04 497.267 1217.39 496.812C1215.82 496.615 1212.62 494.54 1211.58 493.421C1209.98 491.709 1207.85 490.713 1206.2 489.066C1204.24 487.104 1201.42 484.378 1200.65 481.583C1198.48 473.791 1197.53 466.226 1203.74 460.013C1205.88 457.879 1207.83 455.516 1210 453.466Z" fill="#F1E5C4"/>
<path d="M1288.62 421.899C1290.73 418.582 1296.77 418.923 1300.4 418.971C1301.53 419.375 1302.67 419.946 1303.65 420.437C1305.74 421.483 1306.38 423.429 1307.86 425.056C1309.91 427.31 1309.96 431.401 1309.96 434.263C1309.96 437.373 1308.92 440.016 1305.87 441.19C1303.05 442.275 1298.49 443.04 1295.64 441.482C1294.32 440.764 1292.98 440.506 1291.55 440.137C1290.35 439.828 1290.35 439.034 1289.44 438.267C1287.66 436.758 1287.86 435.373 1287.86 433.152C1287.86 429.943 1286.83 424.711 1288.62 421.899Z" fill="#F1E5C4"/>
<path d="M1308.65 464.456C1305.08 456.143 1311.71 445.72 1319.91 441.871C1320.17 441.834 1320.4 441.784 1320.6 441.716C1323.02 440.878 1325.12 440.6 1327.56 441.044C1332.46 441.935 1336.35 446.248 1339.13 450.134C1341.61 453.607 1346.66 457.456 1346.79 462.117C1346.87 465.121 1346.18 467.237 1344.98 469.98C1342.88 474.781 1341.23 479.559 1336.03 481.291C1322.64 485.756 1313.48 475.725 1308.65 464.456Z" fill="#F1E5C4"/>
<path d="M1263.43 546.295C1261.99 541.373 1263.56 535.84 1267.43 532.528C1268.08 528.003 1272.36 523.2 1275.65 520.925C1277.74 519.473 1282.13 521.087 1284.3 521.685C1285.46 522.005 1287.17 521.757 1288.16 522.386C1289.22 523.064 1290.52 523.94 1291.78 524.169C1297.81 525.266 1302.59 530.934 1302.59 536.854C1302.59 543.439 1301.5 548.413 1297.45 553.661C1293.48 558.802 1287.17 559.974 1281.02 559.974C1272.64 559.974 1265.78 554.356 1263.43 546.295Z" fill="#F1E5C4"/>
<path d="M1348.48 487.897C1350.01 485.152 1351.5 484.905 1353.5 485.936C1354.33 485.231 1355.18 484.542 1356.52 484.243C1358.74 483.75 1361.05 484.213 1362.16 486.319C1363.75 489.312 1365.2 490.748 1365.2 494.21C1365.2 497.426 1364.97 498.9 1363.39 501.605C1359.35 508.526 1347.31 502.168 1347.31 495.292C1347.31 492.641 1347.18 490.242 1348.48 487.897Z" fill="#F1E5C4"/>
<path d="M286.845 1302.22C292.765 1300.84 297.312 1303.65 302.314 1306.13C306.265 1306.14 303.85 1314.35 302.837 1316.15C301.912 1317.78 300.726 1320.8 298.847 1321.51C295.732 1322.69 293.182 1324.55 289.684 1324.72C288.188 1324.79 285.817 1323.71 284.533 1323.05C283.709 1322.62 282.01 1322.33 281.348 1321.86C279.52 1320.54 277.079 1318.97 277.041 1316.69C276.976 1312.73 278.366 1308.07 281.351 1305.02C282.984 1303.36 284.425 1302.79 286.845 1302.22Z" fill="#F1E5C4"/>
<path d="M255.857 1316.68C260.225 1316.46 262.211 1318.97 264.174 1321.81C266.224 1321.78 267.311 1324.22 267.381 1325.67C267.537 1328.87 268.26 1332.23 266.764 1335.17C264.599 1339.42 261.188 1342.92 256.708 1345.32C251.382 1348.18 244.873 1344.78 240.815 1341.89C236.646 1338.91 231.482 1335.66 232.313 1330.27C232.865 1326.69 234.255 1321.78 238.605 1320.36C240.02 1319.89 241.292 1318.89 242.797 1318.71C244.162 1318.55 245.506 1318.34 246.868 1318.15C249.923 1317.73 252.758 1316.83 255.857 1316.68Z" fill="#F1E5C4"/>
<path d="M236.023 1353.38C237.419 1354.18 238.285 1354.97 239.083 1355.92C239.299 1356.03 239.517 1356.13 239.74 1356.2C240.524 1356.43 242.196 1358.06 242.77 1358.62C243.775 1359.62 244.746 1360.8 245.458 1361.99C248.181 1366.54 243.193 1369.42 239.541 1372.1C238.306 1373 236.939 1373.83 235.491 1374.43C233.603 1375.2 232.055 1376.56 230.103 1377.2C228.313 1377.79 224.618 1378.06 222.85 1377.54C217.364 1375.91 213.531 1371.46 213.437 1366.27C213.394 1363.9 214.769 1360.91 215.79 1358.74C217.187 1355.78 218.737 1353.45 221.653 1351.54C226.149 1348.59 231.96 1351.05 236.023 1353.38Z" fill="#F1E5C4"/>
<path d="M197.969 1348.02C201.446 1349.46 202.856 1352.92 202.944 1356.54C205.298 1364.34 197.183 1371.75 188.506 1372.17C186.308 1372.28 183.689 1372.39 181.837 1371.23C179.485 1369.75 177.498 1367.94 175.568 1366.05C172.303 1362.86 172.16 1359.61 174.096 1355.73C176.548 1350.82 180.661 1346.96 186.858 1346.66C190.363 1346.49 194.76 1346.69 197.969 1348.02Z" fill="#F1E5C4"/>
<path d="M214.355 1381.64C215.488 1382.55 216.432 1383.66 216.997 1384.9C217.016 1385.46 217.183 1386.11 217.117 1386.54C216.861 1388.2 215.976 1389.79 214.879 1391.11C212.532 1393.92 208.949 1394.62 205.841 1392C204.137 1390.57 204.639 1388.9 204.928 1386.98C205.249 1384.84 207.189 1383.51 209.152 1382.43C210.393 1381.74 213.065 1380.6 214.355 1381.64Z" fill="#F1E5C4"/>
<path d="M275.606 1283.55C277.63 1285.28 278.019 1289.73 278.177 1292.07L278.202 1292.59C278.268 1293.95 277.594 1294.32 276.98 1295.42C276.244 1296.74 274.919 1297.99 273.588 1298.87C271.491 1300.26 269.092 1302.27 266.769 1303.27L266.742 1303.28C263.116 1304.86 258.637 1306.8 254.72 1304.8C250.562 1302.68 247.502 1299.96 244.906 1296.38C243.372 1294.26 243.706 1292.36 243.925 1289.95C244.02 1288.91 245.446 1286.74 246.237 1286.01C247.447 1284.91 248.112 1283.47 249.272 1282.33C250.655 1280.98 252.572 1279.03 254.605 1278.42C260.274 1276.72 265.814 1275.83 270.586 1279.68C272.226 1281.01 274.028 1282.2 275.606 1283.55Z" fill="#F1E5C4"/>
<path d="M301.351 1333.99C303.86 1335.26 303.801 1339.23 303.881 1341.61C303.62 1342.37 303.236 1343.13 302.905 1343.79C302.202 1345.2 300.789 1345.69 299.639 1346.72C298.044 1348.14 295.034 1348.33 292.926 1348.43C290.636 1348.54 288.657 1347.95 287.696 1345.99C286.807 1344.18 286.099 1341.22 287.155 1339.29C287.641 1338.4 287.789 1337.51 288.015 1336.56C288.204 1335.76 288.789 1335.73 289.325 1335.11C290.379 1333.89 291.406 1333.97 293.041 1333.9C295.403 1333.78 299.224 1332.92 301.351 1333.99Z" fill="#F1E5C4"/>
<path d="M270.653 1348.64C276.66 1346.01 284.546 1349.98 287.641 1355.23C287.677 1355.39 287.721 1355.54 287.777 1355.67C288.471 1357.23 288.743 1358.59 288.494 1360.21C287.993 1363.46 284.942 1366.17 282.169 1368.13C279.69 1369.88 277.016 1373.32 273.589 1373.58C271.38 1373.74 269.8 1373.36 267.742 1372.67C264.14 1371.46 260.569 1370.55 259.129 1367.21C255.415 1358.58 262.509 1352.21 270.653 1348.64Z" fill="#F1E5C4"/>
<path d="M208.955 1321.91C212.534 1320.79 216.657 1321.62 219.219 1324.04C222.571 1324.31 226.244 1326.94 228.024 1329.02C229.16 1330.34 228.111 1333.28 227.74 1334.72C227.541 1335.49 227.778 1336.6 227.346 1337.27C226.881 1338 226.277 1338.88 226.149 1339.72C225.533 1343.71 221.512 1347.05 217.153 1347.26C212.304 1347.5 208.607 1346.96 204.614 1344.49C200.702 1342.07 199.638 1337.97 199.443 1333.94C199.176 1328.44 203.095 1323.74 208.955 1321.91Z" fill="#F1E5C4"/>
<path d="M254.661 1375.61C256.73 1376.51 256.96 1377.48 256.264 1378.83C256.81 1379.35 257.344 1379.88 257.607 1380.75C258.041 1382.19 257.773 1383.72 256.258 1384.52C254.105 1385.67 253.094 1386.68 250.544 1386.8C248.176 1386.91 247.084 1386.81 245.042 1385.88C239.818 1383.48 244.115 1375.35 249.179 1375.11C251.13 1375.01 252.892 1374.84 254.661 1375.61Z" fill="#F1E5C4"/>
</g>
<defs>
<filter id="filter0_f_12_158" x="0" y="0" width="1506" height="2008" filterUnits="userSpaceOnUse" color-interpolation-filters="sRGB">
<feFlood flood-opacity="0" result="BackgroundImageFix"/>
<feBlend mode="normal" in="SourceGraphic" in2="BackgroundImageFix" result="shape"/>
<feGaussianBlur stdDeviation="3" result="effect1_foregroundBlur_12_158"/>
</filter>
<clipPath id="clip0_12_158">
<rect width="1494" height="1996" fill="white" transform="translate(6 6)"/>
</clipPath>
</defs>
</svg>
